PathFileType	4	(X/Y/Z)	c:/Users/goper/Files/vsCode/490R/osim_files/C06/C06_SSWS_04.trc
DataRate	CameraRate	NumFrames	NumMarkers	Units                	OrigDataRate	OrigDataStartFrame	OrigNumFrames
250.00	250.00	4	36	mm	250.0	1754	2806
                Frame#	Time	LPSIS			LASIS			LTH1			LTH2			LTH3			LTH4			LLFE			LMFE			LSH1			LSH2			LSH3			LSH4			LLMAL			LMMAL			LCAL			LMTP5			LTOE			LMTP1			RPSIS			RASIS			RTH1			RTH2			RTH3			RTH4			RLFE			RMFE			RSH1			RSH2			RSH3			RSH4			RLMAL			RMMAL			RCAL			RMTP1			RTOE			RMTP5		
		X1	Y1	Z1	X2	Y2	Z2	X3	Y3	Z3	X4	Y4	Z4	X5	Y5	Z5	X6	Y6	Z6	X7	Y7	Z7	X8	Y8	Z8	X9	Y9	Z9	X10	Y10	Z10	X11	Y11	Z11	X12	Y12	Z12	X13	Y13	Z13	X14	Y14	Z14	X15	Y15	Z15	X16	Y16	Z16	X17	Y17	Z17	X18	Y18	Z18	X19	Y19	Z19	X20	Y20	Z20	X21	Y21	Z21	X22	Y22	Z22	X23	Y23	Z23	X24	Y24	Z24	X25	Y25	Z25	X26	Y26	Z26	X27	Y27	Z27	X28	Y28	Z28	X29	Y29	Z29	X30	Y30	Z30	X31	Y31	Z31	X32	Y32	Z32	X33	Y33	Z33	X34	Y34	Z34	X35	Y35	Z35	X36	Y36	Z36

1754	7.01200	-2290.83057	990.06909	164.13118	-2462.99927	956.42755	270.18481	-2383.11719	751.17511	331.19550	-2394.12305	689.25671	332.00735	-2457.57544	757.61609	316.92429	-2459.03809	695.41479	319.92081	-2404.56860	442.53705	300.46896	-2413.40674	419.11646	187.90567	-2277.30981	421.82629	309.58862	-2247.68677	389.08130	305.87714	-2319.54761	373.35068	314.10480	-2285.77808	349.98743	313.82520	-2067.78394	240.46777	252.80524	-2105.34375	238.75690	182.33981	-2040.82849	294.64795	201.25620	-2033.54858	114.52393	268.05930	-2081.34692	73.52333	211.83142	-2070.56421	96.32873	162.23863	-2288.07104	994.00720	92.72338	-2474.91602	973.23114	31.88519	-2428.05811	767.45374	-54.81678	-2448.46997	705.66620	-41.20327	-2496.14282	789.54419	-35.40433	-2509.38623	729.19342	-30.42371	-2531.52222	455.09378	20.15052	-2542.66626	475.22141	125.81749	-2476.94360	380.66415	-0.31358	-2473.10278	334.48370	1.30317	-2535.13721	369.78705	14.38256	-2525.59082	324.27670	15.64399	-2464.95557	90.42212	56.11180	-2477.42432	112.94949	133.29031	-2393.51294	68.15023	100.27158	-2598.69580	37.97717	143.52199	-2620.25854	55.97014	99.18912	-2577.23291	33.66342	30.49176
1755	7.01600	-2294.93286	991.41980	164.17819	-2467.58301	957.90820	270.07950	-2389.83105	752.16815	331.25595	-2401.41626	690.19543	332.10123	-2464.35742	759.22858	316.91006	-2466.47852	697.18744	320.01141	-2415.38135	443.88394	300.44922	-2424.40723	420.61075	187.76077	-2288.33032	423.11963	309.28836	-2258.61011	390.31512	305.47147	-2330.72876	374.68854	314.06500	-2296.67017	351.22098	313.59174	-2079.30762	240.72086	252.41096	-2116.68506	239.38039	182.01312	-2051.27954	294.05731	200.82835	-2047.51208	114.34021	268.66013	-2095.38477	73.52149	212.29831	-2084.59351	96.16325	162.86797	-2291.44995	995.74731	92.34485	-2479.44604	974.35828	31.63016	-2431.39233	768.33221	-54.80770	-2451.42554	706.27222	-41.11853	-2499.59253	789.99353	-35.40263	-2512.51538	729.57977	-30.40908	-2532.27612	455.10086	20.11736	-2543.52661	475.12976	125.84194	-2477.56006	380.77423	-0.53425	-2473.63232	334.47043	1.04548	-2535.70557	369.78204	14.30905	-2526.08765	324.34457	15.61510	-2464.96069	90.51753	56.17160	-2477.44165	113.01418	133.33733	-2393.53394	68.19130	100.33777	-2598.68726	37.98701	143.51524	-2620.26440	55.93005	99.20171	-2577.23584	33.67168	30.48132
1756	7.02000	-2299.54907	992.67560	164.13783	-2472.01221	959.28912	269.92068	-2396.73999	753.14575	331.41583	-2408.88428	691.36066	332.75461	-2471.36011	761.03271	316.97104	-2473.78491	698.96118	320.14880	-2426.03540	445.23090	300.43542	-2435.25708	422.12128	187.54117	-2299.34961	424.42401	308.94656	-2269.60059	391.62708	304.92963	-2342.39404	375.86218	313.00424	-2307.59668	352.52994	313.37689	-2090.79614	240.85468	252.02756	-2127.91943	240.08841	181.53630	-2061.50610	293.29623	200.13210	-2061.45923	113.93665	269.22833	-2110.23486	73.74390	212.98022	-2098.64478	95.82827	163.41977	-2297.28223	996.64404	92.68662	-2483.95190	975.37158	31.45994	-2434.62500	769.22699	-54.78280	-2454.23413	706.80994	-40.99830	-2503.14551	790.41779	-35.38565	-2515.57788	729.90802	-30.42927	-2533.04932	455.12299	20.08480	-2543.96362	474.92834	125.83021	-2478.24316	380.88419	-0.76392	-2474.13184	334.26865	0.71186	-2536.21997	369.75165	14.24978	-2527.22852	324.40674	15.69049	-2465.02979	90.59988	56.20110	-2477.47314	113.11553	133.36052	-2393.53052	68.23569	100.37472	-2598.72339	38.00173	143.48097	-2620.32544	55.93351	99.17371	-2577.23291	33.69503	30.45995
1757	7.02400	-2302.99438	994.38159	163.61295	-2476.75122	960.80005	269.76877	-2403.08643	754.15430	331.61981	-2416.92969	693.28558	335.14578	-2477.70264	762.79248	316.90866	-2481.06665	700.78003	320.27069	-2436.72241	446.67664	300.40775	-2446.07910	423.63147	187.35788	-2310.33057	425.77841	308.43869	-2280.79248	393.04297	304.51794	-2353.29883	377.29453	312.89926	-2318.65283	353.92651	313.17368	-2102.40063	240.81763	251.75180	-2139.36401	240.36673	180.98796	-2071.94238	292.32010	199.55687	-2075.81909	113.41833	269.77518	-2125.09619	73.85582	213.56030	-2112.88550	95.30325	164.00972	-2302.16406	997.79535	92.54518	-2488.27075	976.37854	31.22436	-2437.90552	770.09766	-54.67698	-2457.17944	707.41235	-40.89808	-2506.66553	790.76013	-35.39655	-2518.62549	730.08972	-30.39069	-2533.74536	455.15298	20.04405	-2544.39502	474.73282	125.86813	-2478.87573	380.99988	-0.95043	-2474.48267	334.42151	0.54650	-2536.76489	369.75131	14.25013	-2526.99243	324.39224	15.61351	-2465.04956	90.64540	56.22924	-2477.47485	113.18910	133.39412	-2393.52686	68.27839	100.36343	-2598.92822	38.01096	143.45026	-2620.31299	55.88074	99.14301	-2577.21997	33.65271	30.45329
